<?xml version="1.0" standalone="no"?>
<!DOCTYPE svg PUBLIC "-//W3C//DTD SVG 20010904//EN"
 "http://www.w3.org/TR/2001/REC-SVG-20010904/DTD/svg10.dtd">
<svg version="1.0" xmlns="http://www.w3.org/2000/svg"
 width="1293.000000pt" height="1293.000000pt" viewBox="0 0 1293.000000 1293.000000"
 preserveAspectRatio="xMidYMid meet">
<metadata>
Created by potrace 1.14, written by Peter Selinger 2001-2017
</metadata>
<g transform="translate(0.000000,1293.000000) scale(0.100000,-0.100000)"
fill="#000000" stroke="none">
<path d="M5935 11729 c-181 -132 -333 -244 -338 -248 -12 -12 228 -992 258
-1050 19 -38 22 -53 13 -56 -7 -2 -42 -11 -78 -20 -165 -42 -399 -148 -555
-253 -481 -322 -793 -831 -870 -1415 -10 -82 -15 -204 -15 -403 0 -156 -3
-284 -7 -283 -5 0 -163 181 -353 401 l-345 400 -3 179 -2 179 51 92 c65 116
187 297 275 408 87 109 344 366 454 454 309 246 669 431 1048 540 81 24 116
38 114 47 -11 50 -219 562 -229 566 -7 3 -73 -14 -145 -37 -737 -233 -1363
-679 -1822 -1298 -38 -51 -74 -91 -80 -89 -6 3 -319 174 -695 381 -376 207
-686 375 -688 373 -2 -3 665 -1804 673 -1815 1 -2 194 -36 428 -75 l425 -72
445 -515 446 -515 0 -97 0 -96 33 -20 c18 -10 65 -32 103 -47 252 -101 321
-171 312 -320 -8 -119 -83 -261 -239 -450 l-72 -88 74 -71 c41 -40 285 -276
542 -525 465 -452 467 -454 449 -475 -10 -12 -89 -98 -176 -193 l-157 -172
-77 34 c-210 91 -316 147 -487 259 -164 108 -303 223 -461 380 -341 341 -573
716 -724 1176 -156 473 -188 1000 -89 1484 11 54 19 99 17 100 -8 6 -609 108
-613 104 -7 -7 -53 -268 -67 -383 -8 -68 -13 -218 -13 -395 0 -177 5 -327 13
-395 149 -1215 843 -2220 1926 -2791 l127 -66 -38 -42 c-21 -22 -148 -162
-283 -310 l-245 -269 -3 135 -3 135 -217 53 c-119 29 -222 55 -228 57 -8 3
-58 -135 -139 -377 -70 -210 -129 -379 -131 -377 -2 2 -48 204 -102 448 l-98
444 -210 73 c-115 41 -216 76 -224 78 -13 4 -21 -92 -58 -741 -24 -411 -42
-749 -39 -751 10 -11 319 -115 324 -110 4 3 16 195 29 427 12 231 24 422 26
424 2 2 50 -193 107 -433 57 -240 109 -455 115 -477 12 -39 13 -40 96 -66 47
-15 88 -24 91 -20 4 3 48 116 98 251 87 233 93 247 141 294 27 28 51 48 53 46
2 -3 -2 -153 -10 -334 -8 -181 -11 -331 -8 -334 7 -8 328 -82 333 -77 2 2 13
244 23 537 l18 533 58 53 c32 29 89 81 127 115 l68 61 -6 -99 c-3 -55 -13
-358 -23 -673 -13 -460 -14 -575 -4 -582 15 -9 350 -65 355 -59 3 3 30 1006
38 1394 l2 110 -99 17 c-55 10 -103 19 -109 21 -5 2 76 80 179 174 l188 170
136 -47 c244 -86 485 -142 756 -176 174 -23 644 -26 805 -6 314 39 629 113
859 202 l74 29 189 -172 c157 -142 187 -173 172 -179 -21 -8 -312 -54 -411
-64 l-63 -7 0 -124 0 -123 38 5 c193 28 297 42 299 41 2 -2 10 -286 19 -632 9
-346 17 -630 18 -631 1 -1 84 12 184 29 l182 32 -1 115 c0 64 -8 349 -17 634
-14 418 -15 517 -4 517 7 0 204 -174 438 -386 234 -212 427 -384 428 -383 2 2
-161 184 -362 404 l-365 399 94 21 94 20 -4 115 c-1 63 -5 118 -6 121 -2 3
-73 -9 -157 -27 -84 -19 -166 -35 -182 -36 -27 -3 -47 15 -208 192 -98 107
-178 198 -178 202 0 5 6 8 13 8 16 0 271 139 372 204 526 334 936 767 1235
1301 336 600 493 1316 440 2001 -17 219 -65 514 -84 514 -15 0 -600 -103 -605
-106 -2 -2 6 -51 18 -111 71 -359 69 -790 -5 -1150 -86 -421 -272 -837 -529
-1178 -277 -369 -634 -669 -1037 -871 -116 -58 -269 -127 -273 -122 -1 2 -77
85 -168 186 -92 100 -167 186 -167 190 0 5 245 244 545 531 300 288 545 527
545 531 0 5 -19 30 -42 57 -171 197 -268 379 -268 502 1 132 73 201 312 301
127 52 128 54 128 170 l0 98 440 509 440 509 408 68 c224 37 416 71 426 75 15
6 99 219 357 912 186 497 336 905 334 907 -1 1 -314 -168 -695 -378 -381 -209
-695 -380 -699 -380 -3 1 -34 40 -67 88 -340 481 -885 917 -1459 1167 -133 58
-468 175 -502 175 -14 0 -40 -56 -131 -291 -63 -160 -112 -291 -110 -293 1 -1
50 -15 108 -30 346 -91 758 -302 1052 -539 268 -216 513 -494 681 -774 113
-188 107 -169 107 -362 l0 -170 -342 -395 c-188 -218 -343 -394 -346 -391 -2
2 -8 159 -12 347 -8 313 -11 354 -34 466 -141 663 -598 1216 -1201 1449 -99
39 -240 82 -267 83 -28 0 -29 16 -3 68 15 30 69 235 140 528 64 263 117 486
118 496 1 11 -105 94 -335 262 -185 135 -340 246 -345 246 -4 0 -156 -109
-338 -241z m195 -3005 c0 -58 28 -644 36 -751 l6 -83 104 0 104 0 0 33 c0 17
9 205 20 417 11 212 20 395 20 408 0 21 4 22 83 22 46 0 144 -3 218 -6 l134
-7 -3 -75 c-5 -94 15 -149 68 -195 l38 -33 -136 0 c-118 0 -145 -3 -194 -22
-67 -27 -124 -85 -134 -137 -31 -167 172 -461 446 -644 105 -70 184 -103 265
-108 83 -6 118 18 168 117 86 172 102 379 39 514 -37 79 -104 148 -188 193
-32 18 -52 32 -44 32 29 1 126 -46 199 -94 103 -69 133 -87 138 -81 8 8 -52
98 -89 132 -50 47 -110 84 -248 154 -162 81 -255 155 -275 219 l-7 24 118 -7
c168 -10 553 -51 672 -72 l32 -6 0 -653 0 -654 -475 -347 c-308 -225 -477
-355 -480 -368 -3 -12 -57 -376 -120 -811 -64 -434 -118 -803 -122 -820 -5
-26 10 -15 119 87 l124 117 142 -129 142 -129 -43 -12 c-94 -26 -280 -60 -412
-75 -178 -21 -585 -15 -745 11 -115 18 -328 63 -347 74 -11 5 146 157 249 240
l30 24 86 -84 c143 -138 161 -154 157 -133 -3 10 -59 388 -125 839 -100 679
-123 822 -138 832 -9 7 -222 162 -472 346 l-455 333 -3 656 -2 656 32 6 c48 8
330 43 418 51 l75 7 -50 -33 c-56 -38 -185 -166 -248 -249 -23 -30 -71 -91
-106 -135 -36 -44 -69 -85 -73 -92 -20 -26 65 28 176 112 228 175 251 189 328
209 61 16 111 5 210 -45 57 -29 57 -29 68 -8 9 16 6 29 -16 67 -60 105 -116
156 -189 172 -24 5 -14 8 45 14 107 11 353 23 503 24 l127 2 0 -46z m955 -689
c52 -51 16 -145 -55 -145 -44 0 -80 39 -80 85 0 46 36 85 80 85 19 0 40 -9 55
-25z m-3282 -4530 c-15 -19 -30 -30 -31 -25 -2 6 9 45 25 88 l28 77 3 -52 c3
-45 -1 -58 -25 -88z"/>
<path d="M5585 8449 c-195 -26 -349 -104 -426 -215 -97 -141 -96 -367 2 -569
44 -90 76 -117 141 -123 240 -19 696 395 743 674 16 97 -45 188 -148 219 -64
20 -218 27 -312 14z m-25 -409 c57 -57 20 -150 -60 -150 -10 0 -31 10 -45 23
-21 17 -27 32 -27 62 0 71 84 113 132 65z"/>
<path d="M6170 7679 c-249 -37 -371 -219 -246 -365 66 -77 179 -114 349 -114
174 0 294 45 355 134 57 85 41 180 -44 255 -52 45 -132 77 -229 91 -80 11
-108 11 -185 -1z m-30 -239 c28 -28 27 -84 -2 -104 -31 -22 -64 -20 -88 6 -27
29 -25 64 5 93 29 30 58 32 85 5z m338 3 c50 -42 24 -123 -38 -123 -38 0 -74
44 -65 80 7 29 40 60 65 60 10 0 27 -8 38 -17z"/>
<path d="M5474 7323 c-21 -4 -114 -95 -114 -112 0 -5 6 -14 14 -20 11 -9 20
-2 47 34 36 47 45 52 94 57 69 6 121 -49 211 -221 89 -171 233 -301 377 -341
92 -25 250 1 382 65 80 38 136 61 193 80 30 9 68 30 86 45 18 16 45 32 62 35
16 4 46 20 66 36 20 16 41 29 46 29 20 0 118 118 133 160 8 24 20 45 26 47 6
2 24 -8 42 -22 17 -15 36 -23 42 -20 30 19 -149 146 -216 152 -51 6 -130 -25
-169 -66 -23 -24 -25 -30 -12 -40 12 -10 23 -8 59 13 63 37 79 32 32 -11 -22
-20 -78 -84 -125 -142 -131 -163 -236 -238 -400 -288 -157 -48 -291 -27 -403
61 -53 42 -139 158 -180 243 -19 40 -45 85 -56 99 l-21 27 21 15 20 14 -22 24
c-40 42 -148 64 -235 47z m1570 -59 c20 -8 20 -50 1 -84 -13 -24 -14 -24 -20
-5 -4 11 -11 30 -16 43 -19 47 -7 62 35 46z m-54 -75 c0 -15 2 -33 5 -41 6
-15 -67 -107 -99 -125 -19 -11 -23 -8 -43 39 -27 59 -25 64 52 138 54 50 58
53 71 35 8 -10 14 -31 14 -46z m-161 -158 c12 -38 5 -53 -38 -75 -52 -27 -69
-28 -76 -6 -5 15 5 34 41 76 26 30 50 51 54 47 4 -4 12 -23 19 -42z m-139
-103 c0 -12 -3 -18 -7 -15 -3 4 -12 2 -20 -5 -21 -17 -28 0 -8 22 23 26 35 25
35 -2z"/>
<path d="M6002 6569 c8 -24 98 -86 150 -103 74 -24 181 -21 249 8 67 27 115
60 130 88 10 19 9 20 -12 14 -116 -33 -144 -37 -244 -37 -98 -1 -198 14 -259
37 -14 5 -17 3 -14 -7z"/>
<path d="M9556 4547 l-169 -62 -86 -299 -86 -299 -112 229 c-62 126 -114 233
-116 237 -3 11 -367 -85 -367 -97 0 -9 194 -361 353 -641 l79 -140 14 -299 c8
-165 17 -302 19 -304 4 -4 264 73 328 97 33 13 32 4 13 364 l-14 249 88 271
c77 237 214 668 235 735 3 12 3 22 -2 21 -4 0 -84 -29 -177 -62z"/>
<path d="M5384 4029 c-180 -21 -323 -125 -354 -257 -6 -26 -15 -222 -21 -436
-12 -416 -8 -485 32 -590 59 -159 253 -266 484 -266 106 0 165 15 236 60 27
18 51 31 53 29 2 -2 13 -22 24 -45 20 -40 23 -41 83 -48 34 -3 79 -6 100 -6
l39 0 0 393 0 394 -182 6 c-101 4 -227 10 -281 13 l-98 7 3 -109 3 -109 50 -2
c28 -2 70 -6 94 -9 l44 -6 -5 -116 c-6 -131 -20 -172 -68 -197 -39 -20 -117
-19 -159 3 -86 43 -93 93 -82 587 8 406 10 419 71 450 67 34 182 5 220 -57 16
-27 20 -50 20 -134 l0 -101 122 -6 c66 -4 152 -7 190 -7 l68 0 0 63 c-1 218
-64 334 -229 421 -115 60 -311 93 -457 75z"/>
<path d="M7205 4030 c-38 -5 -105 -11 -149 -15 l-78 -7 7 -302 7 -303 -107 -6
c-60 -4 -130 -7 -157 -7 l-48 0 0 300 0 300 -139 0 c-76 0 -159 -3 -185 -6
l-46 -7 0 -753 0 -754 129 0 c70 0 155 3 187 6 l59 6 0 332 0 331 149 7 c82 5
150 7 152 5 1 -1 5 -149 9 -329 l8 -328 51 1 c73 0 305 25 313 33 4 3 1 318
-5 699 -7 380 -12 718 -12 750 l0 57 -37 -1 c-21 -1 -69 -5 -108 -9z"/>
<path d="M1420 3512 c0 -13 -84 -1073 -112 -1424 l-3 -37 160 -85 160 -85 6
27 c4 15 19 203 34 417 15 215 31 393 35 398 3 4 12 -23 19 -60 15 -81 180
-881 187 -904 4 -16 169 -97 178 -88 4 4 215 507 277 658 22 55 35 77 37 63 2
-12 -9 -204 -23 -428 -14 -224 -23 -410 -18 -414 11 -10 325 -131 329 -127 5
4 84 1373 84 1443 l0 51 -226 91 -226 90 -12 -31 c-8 -18 -69 -179 -136 -359
-68 -180 -125 -326 -128 -324 -2 2 -43 210 -91 463 l-87 458 -215 112 c-118
62 -217 112 -221 113 -5 0 -8 -8 -8 -18z"/>
<path d="M10849 3369 c-149 -21 -374 -143 -505 -274 -120 -119 -175 -235 -176
-371 -2 -193 92 -266 432 -334 195 -39 238 -55 273 -102 42 -56 15 -163 -58
-226 -127 -113 -268 -94 -290 38 -4 22 -8 40 -9 40 -2 0 -77 -42 -167 -93
l-164 -93 3 -35 c2 -19 15 -59 30 -89 113 -227 515 -160 807 134 151 152 211
284 203 444 -5 104 -28 155 -91 196 -56 36 -111 51 -307 86 -277 49 -320 74
-320 184 0 67 48 132 128 173 35 18 76 33 91 33 33 0 64 -32 81 -82 6 -21 14
-38 16 -38 3 0 77 45 164 101 103 64 160 107 160 117 0 56 -78 161 -134 182
-37 13 -110 17 -167 9z"/>
<path d="M9855 2944 c-178 -69 -469 -167 -700 -238 l-180 -54 3 -118 c1 -65 3
-119 5 -120 2 -2 77 19 167 46 91 26 166 48 167 46 1 -1 16 -283 33 -626 17
-344 33 -626 34 -628 4 -3 356 115 363 122 3 3 -9 263 -26 578 -17 315 -32
597 -34 626 l-2 53 160 61 c88 33 164 64 169 68 9 9 -3 241 -13 239 -3 -1 -69
-25 -146 -55z"/>
<path d="M3010 2801 c0 -41 -68 -1332 -74 -1408 l-5 -62 157 -50 c276 -88 771
-226 778 -218 1 1 5 54 9 119 6 108 6 116 -12 122 -10 3 -94 25 -188 50 -93
25 -209 57 -258 71 -48 14 -90 25 -93 25 -8 0 7 380 15 401 5 14 28 10 176
-32 94 -27 182 -51 196 -54 l26 -6 7 117 c3 64 5 119 3 121 -3 2 -62 19 -133
39 -71 19 -160 44 -197 55 l-69 20 7 177 c4 97 9 178 10 180 1 1 119 -29 261
-68 142 -38 266 -70 276 -70 15 0 18 9 18 59 0 32 3 85 6 117 l6 59 -113 29
c-159 40 -454 125 -643 185 -87 28 -161 51 -162 51 -2 0 -4 -13 -4 -29z"/>
<path d="M8377 2509 c-121 -26 -221 -49 -223 -51 -2 -3 -29 -128 -59 -279 -31
-151 -103 -501 -161 -777 -58 -277 -104 -506 -101 -508 6 -6 361 55 368 64 3
4 18 75 33 157 16 83 32 156 36 164 5 9 66 27 161 47 84 19 154 32 154 31 1
-1 19 -64 40 -139 21 -76 42 -143 46 -150 8 -13 45 -6 270 53 l116 31 -32 101
c-18 56 -98 307 -178 557 -80 250 -166 521 -191 603 -26 81 -50 146 -54 146
-4 -1 -105 -23 -225 -50z m84 -707 c38 -141 53 -209 45 -213 -19 -10 -177 -41
-183 -36 -6 7 69 457 77 457 3 0 30 -93 61 -208z"/>
<path d="M4126 2478 c-3 -24 -14 -340 -26 -703 -11 -363 -22 -683 -24 -712
l-4 -51 211 -41 c254 -49 698 -121 743 -121 2 0 4 54 4 120 0 116 -1 120 -22
124 -13 3 -133 21 -268 41 -135 20 -253 38 -262 41 -16 5 -17 23 -11 212 3
114 6 208 7 209 0 0 37 -5 82 -13 44 -8 135 -22 201 -32 l121 -19 6 36 c3 20
6 75 6 124 0 84 -1 87 -23 87 -21 0 -298 43 -360 56 l-28 6 7 176 c3 98 8 178
9 180 2 2 106 -13 231 -32 126 -19 253 -38 282 -41 l52 -7 0 120 0 120 -27 6
c-16 3 -80 12 -143 21 -209 29 -676 112 -742 131 -13 4 -18 -4 -22 -38z"/>
<path d="M7442 2356 c-151 -18 -175 -24 -184 -41 -34 -62 -312 -512 -324 -525
-12 -12 -14 23 -14 253 l0 268 -42 -5 c-24 -3 -110 -8 -192 -12 l-149 -6 6
-442 c4 -242 7 -582 7 -753 l0 -313 63 0 c34 0 119 3 190 7 l127 6 0 249 0
250 62 86 62 86 12 -30 c24 -58 266 -599 270 -603 6 -7 388 40 397 49 5 4 -93
210 -217 459 -124 248 -226 455 -226 460 0 6 83 136 185 290 102 154 185 282
185 285 0 8 -18 7 -218 -18z"/>
<path d="M5260 2283 c0 -32 -5 -370 -11 -751 -7 -411 -8 -696 -3 -702 10 -9
360 -37 368 -29 3 2 8 140 12 307 l7 302 54 0 c42 0 55 -4 61 -17 4 -10 50
-151 102 -313 l96 -295 130 -8 c158 -9 280 -6 277 8 -1 6 -58 158 -127 338
-70 180 -126 331 -126 335 1 4 26 23 56 42 110 69 158 173 158 340 0 246 -108
377 -358 435 -34 8 -188 24 -341 35 -154 11 -297 23 -317 26 l-38 6 0 -59z
m549 -234 c66 -14 105 -57 121 -135 21 -101 -12 -219 -69 -249 -24 -12 -55
-15 -129 -13 l-97 3 -3 160 c-2 88 0 179 3 203 l6 42 59 0 c33 0 82 -5 109
-11z"/>
</g>
</svg>
